<svg width="43" height="43" viewBox="0 0 43 43" fill="none" xmlns="http://www.w3.org/2000/svg">
<g clip-path="url(#clip0)">
<path d="M28.2825 38.6079V31.8547C28.348 31.0226 28.2356 30.1861 27.9528 29.4008C27.6699 28.6155 27.2232 27.8994 26.6422 27.3002C32.1216 26.6894 37.8801 24.6128 37.8801 15.085C37.8797 12.6487 36.9425 10.3058 35.2626 8.54123C36.0581 6.4097 36.0018 4.05365 35.1056 1.96251C35.1056 1.96251 33.0464 1.35175 28.2825 4.54514C24.283 3.46117 20.067 3.46117 16.0674 4.54514C11.3035 1.35175 9.2444 1.96251 9.2444 1.96251C8.34812 4.05365 8.29187 6.4097 9.08735 8.54123C7.3949 10.3189 6.45677 12.683 6.46982 15.1374C6.46982 24.5954 12.2284 26.672 17.7077 27.3525C17.1336 27.9458 16.6908 28.6533 16.4082 29.4289C16.1256 30.2046 16.0095 31.0311 16.0674 31.8547V38.6079M16.0674 33.3728C7.34233 35.9903 7.34233 29.0103 3.85229 28.1378L16.0674 33.3728Z" stroke="#203A43" stroke-width="3" stroke-linecap="round" stroke-linejoin="round"/>
</g>
<defs>
<clipPath id="clip0">
<rect width="41.8804" height="41.8804" fill="white" transform="translate(0.362305 0.217499)"/>
</clipPath>
</defs>
</svg>
