<svg width="40" height="39" viewBox="0 0 40 39" fill="none" xmlns="http://www.w3.org/2000/svg">
<path d="M27.8974 3.1958H11.9184C7.50597 3.1958 3.92896 6.77282 3.92896 11.1853V27.1643C3.92896 31.5767 7.50597 35.1537 11.9184 35.1537H27.8974C32.3099 35.1537 35.8869 31.5767 35.8869 27.1643V11.1853C35.8869 6.77282 32.3099 3.1958 27.8974 3.1958Z" stroke="#C471ED" stroke-width="3.1958" stroke-linecap="round" stroke-linejoin="round"/>
<path d="M26.2993 18.1681C26.4965 19.4979 26.2693 20.8561 25.6501 22.0494C25.0309 23.2427 24.0512 24.2104 22.8504 24.8148C21.6495 25.4192 20.2887 25.6296 18.9614 25.416C17.6341 25.2025 16.4079 24.5758 15.4573 23.6252C14.5066 22.6745 13.88 21.4484 13.6664 20.1211C13.4528 18.7938 13.6632 17.4329 14.2676 16.232C14.872 15.0312 15.8397 14.0515 17.033 13.4323C18.2263 12.8131 19.5845 12.586 20.9143 12.7832C22.2708 12.9843 23.5267 13.6164 24.4963 14.5861C25.466 15.5558 26.0981 16.8116 26.2993 18.1681Z" stroke="#C471ED" stroke-width="3.1958" stroke-linecap="round" stroke-linejoin="round"/>
<path d="M28.6963 10.3863H28.7132" stroke="#C471ED" stroke-width="3.1958" stroke-linecap="round" stroke-linejoin="round"/>
</svg>
