<svg width="43" height="43" viewBox="0 0 43 43" fill="none" xmlns="http://www.w3.org/2000/svg">
<g clip-path="url(#clip0)">
<path d="M41.1007 5.84854C39.4297 7.02726 37.5795 7.92879 35.6214 8.51842C34.5704 7.31001 33.1737 6.45352 31.6201 6.06479C30.0665 5.67606 28.431 5.77385 26.9348 6.34492C25.4386 6.91599 24.1539 7.93279 23.2544 9.25781C22.3549 10.5828 21.884 12.1521 21.9055 13.7535V15.4985C18.8389 15.578 15.8002 14.8979 13.06 13.5187C10.3199 12.1395 7.96338 10.104 6.20036 7.59356C6.20036 7.59356 -0.779707 23.2987 14.9254 30.2788C11.3316 32.7183 7.05046 33.9415 2.71033 33.7688C18.4155 42.4939 37.6107 33.7688 37.6107 13.7011C37.6091 13.2151 37.5623 12.7302 37.4711 12.2528C39.252 10.4964 40.5088 8.27885 41.1007 5.84854V5.84854Z" stroke="#12C2E9" stroke-width="3" stroke-linecap="round" stroke-linejoin="round"/>
</g>
<defs>
<clipPath id="clip0">
<rect width="41.8804" height="41.8804" fill="white" transform="translate(0.965332 0.61351)"/>
</clipPath>
</defs>
</svg>
