<svg width="43" height="42" viewBox="0 0 43 42" fill="none" xmlns="http://www.w3.org/2000/svg">
<g clip-path="url(#clip0)">
<path d="M40.0156 11.203C39.8083 10.3748 39.3861 9.61605 38.7917 9.00326C38.1973 8.39047 37.4517 7.94539 36.6302 7.71298C33.6288 6.98007 21.6231 6.98007 21.6231 6.98007C21.6231 6.98007 9.61735 6.98007 6.61592 7.78278C5.79445 8.01519 5.04885 8.46027 4.45445 9.07306C3.86004 9.68585 3.43787 10.4446 3.23059 11.2728C2.68128 14.3188 2.41258 17.4088 2.42788 20.504C2.4083 23.6224 2.67701 26.7359 3.23059 29.8049C3.45911 30.6073 3.89074 31.3373 4.48376 31.9242C5.07678 32.5111 5.81115 32.9351 6.61592 33.1553C9.61735 33.958 21.6231 33.958 21.6231 33.958C21.6231 33.958 33.6288 33.958 36.6302 33.1553C37.4517 32.9229 38.1973 32.4778 38.7917 31.8651C39.3861 31.2523 39.8083 30.4935 40.0156 29.6653C40.5606 26.6422 40.8293 23.5758 40.8183 20.504C40.8378 17.3855 40.5691 14.272 40.0156 11.203V11.203Z" stroke="#F64F59" stroke-width="3.49003" stroke-linecap="round" stroke-linejoin="round"/>
<path d="M17.6968 26.2102L27.7306 20.504L17.6968 14.7978V26.2102Z" stroke="#F64F59" stroke-width="3.49003" stroke-linecap="round" stroke-linejoin="round"/>
</g>
<defs>
<clipPath id="clip0">
<rect width="41.8804" height="41.8804" fill="white" transform="translate(0.682861)"/>
</clipPath>
</defs>
</svg>
